<?xml version="1.0" encoding="UTF-8"?><svg id="Layer_1" xmlns="http://www.w3.org/2000/svg" viewBox="0 0 643.39 93.87"><defs><style>.cls-1{fill:#fff;}</style></defs><g id="Layer_2"><path class="cls-1" d="m107.4,12.54h19.68v71.05h-19.68V12.54h0Z"/><path class="cls-1" d="m137.36,83.59V12.54h54.2v13.75h-34.47v14.69h31.69v13.8h-31.69v15.06h34.47v13.75h-54.2Z"/><path class="cls-1" d="m202.58,83.59V12.54h54.1v13.75h-34.42v14.69h31.69v13.8h-31.69v15.06h34.42v13.75h-54.1,0Z"/><path class="cls-1" d="m267.75,83.59V12.54h54.1v13.75h-34.42v14.69h31.69v13.8h-31.69v15.06h34.42v13.75h-54.1Z"/><path class="cls-1" d="m44.22,13.33c3.15-2.47,7.08-.42,9.71,1.84,2.78,2.1,5.67,4.51,8.19,6.98l.47.26c7.02,6.42,13.36,13.56,18.89,21.3.84,1.36,1.57,2.89,1.1,4.62-1.78,4.46-5.4,8.03-8.55,11.91-6.68,7.49-14.12,14.26-22.2,20.2-1.68,1.15-3.88,2.2-5.82,1.31-5.93-3.15-11.02-8.24-16.16-12.91-6.26-5.67-11.86-12.02-16.69-18.94-.68-.94-.89-2.1-.89-3.41.63-2.36,2.2-4.3,3.78-6.3,5.65-7,11.9-13.5,18.68-19.41l.73-.58c2.83-2.52,5.72-4.72,8.71-6.87m9.18-7.19l-3.46-5.04c-.47-.26-1-.63-1.47-.84-1.05-.42-2.2.1-3.04.79l-6.4,8.34C28.67,22.31,16.57,33.69,3.04,43.18c-1.05.84-2.62,1.63-2.94,2.99-.37,1.21.31,2.26,1.05,2.99,10.92,7.51,20.96,16.25,29.91,26.03,1.63,1.68,2.94,3.36,4.51,4.98,2.68,3.52,5.77,7.08,8.24,10.86.79.84.89,2.1,2.1,2.52.94.31,2.1.52,2.99,0l.89-.89c11.23-15.8,24.97-29.66,40.67-41.03,1.57-1.42,4.57-1.89,4.62-4.51-.12-1.24-.79-2.36-1.84-3.04h-.26c-8.1-5.53-15.67-11.8-22.62-18.73l-7.77-8.08c-3.15-3.52-6.24-7.4-9.18-11.12m-8.03,9.13c3.2-2.2,6.09.84,8.55,2.62,9.76,7.6,18.39,16.56,25.61,26.6.89,1.26,1.26,3.25.52,4.72-1.84,2.99-4.2,5.77-6.51,8.5v.16c-5.67,6.27-11.79,12.11-18.31,17.47-3.15,1.94-6.09,6.19-10.18,3.57-9.57-7.06-18.26-15.25-25.87-24.4-1.26-2.05-3.25-3.67-4.2-5.93-1.21-3.04,1.57-5.25,3.15-7.61,7.66-9.5,17.32-18.89,27.23-25.71m2.05,6.3l-.89,2.73-4.36,12.54c1.05.1,2.47,0,3.52.1v.1l-.63,14.17.1.1c1.42.16,3.15.21,4.57,0v-.26l-.58-13.7.1-.47,3.83-.05c-1.94-5.09-3.78-10.18-5.56-15.32l-.1.05h0Zm-14.85,19.47c-2.47,1.26-6.03,3.15-5.67,6.45.52,1.84,2.52,3.04,4.09,3.78,8.66,3.83,20.2,3.94,29.38,1.1,2.2-.89,5.25-2.1,5.67-4.93,0-2.26-2.41-3.67-4.2-4.57v-.1c.63-.26,1.31-.52,1.94-.52v-.1c-3.04-.52-6.03-1.31-8.97-2.1.52,1.31.94,2.62,1.42,4.04.94-.31,1.84-.52,2.78-.63,1.57.58,3.83,1.47,4.04,3.41.21,1.84-1.84,2.73-3.1,3.46-6.85,2.43-14.28,2.72-21.3.84-1.89-.63-4.72-1.42-4.93-3.88,1.36-3.2,4.93-3.88,7.87-4.72-1.52-.94-3.04-1.84-4.57-2.94-1.57.1-3.04.79-4.46,1.42m12.38,14.12c-.26,5.04-.31,9.65-.68,14.69,1.99.16,4.2.37,6.3.05l-.58-14.01-.1-.68c-1.63.05-3.15.1-4.93-.05"/><path class="cls-1" d="m63.48,83.9c-1.73,0-3.31,1.21-3.31,3.31s1.57,3.31,3.31,3.31c1.74.09,3.22-1.25,3.31-2.98v-.32c.09-1.74-1.25-3.22-2.98-3.31h-.32m0,5.82c-1.31,0-2.36-1-2.36-2.52s1.05-2.52,2.36-2.52,2.36,1.05,2.36,2.52-1.05,2.52-2.36,2.52m1.47-3.2c0-.84-.52-1.05-1.42-1.05h-1.36v3.52h.79v-1.52h.37l.79,1.52h.89l-.89-1.57c.52,0,.84-.26.84-.89m-1.31.37h-.68v-.89h.52c.26,0,.68.05.68.42,0,.42-.21.47-.52.47"/><path class="cls-1" d="m376.53,9.67l8.7,30.12h-6.44l-1.52-5.99h-9.23l-1.56,5.99h-6.44l8.49-30.12h8Zm-3.9,5.38h-.16l-3.28,13.62h6.77l-3.32-13.62h0Z"/><path class="cls-1" d="m389.13,9.67h5.79v30.12h-5.79V9.67Z"/><path class="cls-1" d="m405.01,30.11c-.04,2.22-.04,5.95,3.98,5.95,1.76,0,3.2-.33,5.79-1.6l.62,4.35c-2.22.78-4.02,1.44-6.89,1.44-2.67,0-7.06-.57-8.37-5.58-.41-1.6-.53-4.19-.53-4.35,0-3.82,0-7.39,1.48-9.81,1.68-2.79,4.88-3.08,6.65-3.08,3.53,0,5.21,1.48,6.28,3.08,1.31,1.93,1.31,3.98,1.31,9.6h-10.32Zm5.54-3.24c0-3.28-.04-5.79-2.91-5.79-2.71,0-2.67,3.04-2.63,5.79h5.54Z"/><path class="cls-1" d="m436.03,18.04l-5.74,10.67,6.2,11.08h-6.07c-1.19-2.26-1.39-2.63-3.08-6.15h-.21l-.49,1.11-2.5,5.05h-6.07l6.07-11.04-5.79-10.71h6.03l2.17,4.51c.12.21.49,1.03.57,1.19h.16c.08-.16.41-1.03.49-1.19l2.22-4.51h6.04,0Z"/><path class="cls-1" d="m438.74,20.38c1.85-1.44,3.69-2.87,8.33-2.87,1.52,0,4.76.37,6.52,2.13,1.64,1.64,1.64,3.28,1.64,4.43v10.67c0,.12.16,1.31,1.27,1.35v3.94h-1.68c-2.79,0-3.94-1.72-4.47-2.71h-.16c-.7.9-1.11,1.4-2.01,1.93-.29.16-1.89,1.11-3.77,1.11-2.3,0-5.83-1.19-5.83-6.2,0-2.01.74-5.21,4.68-7.02,2.09-.94,4.31-1.4,6.24-1.52,0-2.13,0-2.75-.41-3.32-.37-.53-1.27-.94-2.38-.94-2.5,0-4.06,1.35-5.25,2.38l-2.71-3.36h-.01Zm10.71,8.29c-1.27.25-5.42,1.03-5.42,4.76,0,1.48.9,2.67,2.3,2.67,2.63,0,3.12-2.63,3.12-4.06v-3.36h0Z"/><path class="cls-1" d="m460.86,18.04h5.33v4.02h.12c1.27-2.34,3.36-4.47,6.24-4.47,5.5,0,5.5,4.64,5.5,6.28v15.92h-5.79v-14.2c0-.86.04-2.95-1.89-2.95-1.64,0-2.63,1.07-3.73,2.26v14.89h-5.79v-21.75h0Z"/><path class="cls-1" d="m494.5,20.71v-11.04h5.83v30.12h-5.42v-3.53h-.25c-1.97,3.32-3.86,3.86-5.99,3.86-3.86,0-5.05-3.08-5.38-4.92-.29-1.64-.29-3.69-.29-5.29,0-3.98,0-6.44.45-8.45.49-2.3,2.13-4.02,5.13-4.02,3.61,0,4.96,2.13,5.7,3.28h.22,0Zm0,2.91c-.49-.45-1.93-1.64-3.36-1.64-2.22,0-2.22,2.13-2.22,5.74,0,2.71,0,4.27.12,5.09.29,1.81,1.23,2.22,2.22,2.22,1.68,0,2.71-1.11,3.24-1.68v-9.72h0Z"/><path class="cls-1" d="m506.03,18.04h5.5v4.92h.16c2.05-4.76,4.39-5.42,6.48-5.5v7.51c-2.42,0-3.94,0-6.28,1.97v12.84h-5.87v-21.75h.01Z"/><path class="cls-1" d="m528.15,14.43h-5.66v-4.92h5.66v4.92Zm-5.66,3.61h5.66v21.75h-5.66v-21.75Z"/><path class="cls-1" d="m532.26,20.38c1.85-1.44,3.69-2.87,8.33-2.87,1.52,0,4.76.37,6.52,2.13,1.64,1.64,1.64,3.28,1.64,4.43v10.67c0,.12.16,1.31,1.27,1.35v3.94h-1.68c-2.79,0-3.94-1.72-4.47-2.71h-.16c-.7.9-1.11,1.4-2.01,1.93-.29.16-1.89,1.11-3.77,1.11-2.3,0-5.83-1.19-5.83-6.2,0-2.01.74-5.21,4.68-7.02,2.09-.94,4.31-1.4,6.24-1.52,0-2.13,0-2.75-.41-3.32-.37-.53-1.27-.94-2.38-.94-2.5,0-4.06,1.35-5.25,2.38l-2.71-3.36h-.01Zm10.71,8.29c-1.27.25-5.42,1.03-5.42,4.76,0,1.48.9,2.67,2.3,2.67,2.63,0,3.12-2.63,3.12-4.06v-3.36h0Z"/><path class="cls-1" d="m376.37,60c-.94-1.81-2.87-3.37-5.21-3.37-3.45,0-3.53,2.58-3.53,2.91,0,2.13,1.97,3,3.82,3.65l3.82,1.39c1.81.66,3.94,1.89,5.13,3.53.37.49,1.68,2.46,1.68,5.29,0,1.35,0,5.38-4.27,7.96-1.76,1.07-4.27,1.52-5.79,1.52-5.29,0-8.41-1.27-11.12-6.11l5.13-3.41c1.11,2.54,3.12,4.1,5.7,4.1,1.44,0,4.02-.66,4.02-3.41,0-2.26-1.23-2.75-5.74-4.51-4.55-1.76-8.49-3.77-8.49-9.72,0-4.96,3.61-8.54,9.81-8.54,4.43,0,7.55,1.81,10.01,5.42l-4.96,3.28v.02h-.01Z"/><path class="cls-1" d="m384.66,60.29h3.24v-7.88h5.7v7.88h4.18v4.18h-4.18v11.28c0,.7,0,1.85,2.87,1.85.33,0,.41,0,1.6-.12v4.47c-2.34.29-2.58.33-3.45.33-2.46,0-6.73-.33-6.73-5.95v-11.86h-3.24v-4.18h.01Z"/><path class="cls-1" d="m419.94,60.29v21.75h-5.25v-3.69h-.25c-1.23,2.05-2.79,4.23-6.28,4.23-5.17,0-5.38-4.27-5.38-5.79v-16.49h5.74v14.16c0,1.48.33,3.04,1.97,3.04.66,0,1.56-.41,1.85-.57,1.03-.57,1.52-1.27,1.85-1.68v-14.93h5.75v-.03h0Z"/><path class="cls-1" d="m436.44,62.96v-11.04h5.83v30.12h-5.42v-3.53h-.25c-1.97,3.32-3.86,3.86-5.99,3.86-3.86,0-5.05-3.08-5.38-4.92-.29-1.64-.29-3.69-.29-5.29,0-3.98,0-6.44.45-8.45.49-2.3,2.13-4.02,5.13-4.02,3.61,0,4.96,2.13,5.7,3.28h.22Zm0,2.91c-.49-.45-1.93-1.64-3.36-1.64-2.22,0-2.22,2.13-2.22,5.74,0,2.71,0,4.27.12,5.09.29,1.81,1.23,2.22,2.22,2.22,1.68,0,2.71-1.11,3.24-1.68v-9.72h0Z"/><path class="cls-1" d="m452.9,72.35c-.04,2.22-.04,5.95,3.98,5.95,1.76,0,3.2-.33,5.79-1.6l.62,4.35c-2.22.78-4.02,1.44-6.89,1.44-2.67,0-7.06-.57-8.37-5.58-.41-1.6-.53-4.19-.53-4.35,0-3.82,0-7.38,1.48-9.81,1.68-2.79,4.88-3.08,6.65-3.08,3.53,0,5.21,1.48,6.28,3.08,1.31,1.93,1.31,3.98,1.31,9.6h-10.32,0Zm5.54-3.24c0-3.28-.04-5.79-2.91-5.79-2.71,0-2.67,3.04-2.63,5.79h5.54Z"/><path class="cls-1" d="m468.94,60.29h5.33v4.02h.12c1.27-2.34,3.36-4.47,6.24-4.47,5.5,0,5.5,4.64,5.5,6.28v15.92h-5.79v-14.2c0-.86.04-2.96-1.89-2.96-1.64,0-2.63,1.07-3.73,2.26v14.89h-5.79v-21.75h0Z"/><path class="cls-1" d="m489.58,60.29h3.24v-7.88h5.7v7.88h4.18v4.18h-4.18v11.28c0,.7,0,1.85,2.87,1.85.33,0,.41,0,1.6-.12v4.47c-2.34.29-2.58.33-3.45.33-2.46,0-6.73-.33-6.73-5.95v-11.86h-3.24v-4.18h.01Z"/><path class="cls-1" d="m520.11,51.92h9.93c2.58,0,5.09.16,6.81,1.23,2.22,1.35,3.24,3.9,3.24,6.4,0,3.65-1.81,5.99-4.14,6.52v.21c2.01.29,4.8,2.46,4.8,6.89,0,2.21-.33,4.47-2.34,6.48-2.17,2.22-4.76,2.38-8.58,2.38h-9.72v-30.12h0Zm6.44,12.27c5.29,0,7.02-.16,7.02-3.98s-2.67-3.65-4.02-3.65h-3v7.63Zm0,13.09h3.28c2.63,0,4.27-1.23,4.27-4.31,0-1.44-.37-3.12-1.93-3.78-.94-.37-3.28-.37-5.62-.37v8.45h0Z"/><path class="cls-1" d="m545.92,60.29h5.5v4.92h.16c2.05-4.76,4.39-5.42,6.48-5.5v7.51c-2.42,0-3.94,0-6.28,1.97v12.84h-5.87v-21.75h.01Z"/><path class="cls-1" d="m560.73,62.63c1.85-1.44,3.69-2.87,8.33-2.87,1.52,0,4.76.37,6.52,2.13,1.64,1.64,1.64,3.28,1.64,4.43v10.67c0,.12.16,1.31,1.27,1.35v3.94h-1.68c-2.79,0-3.94-1.72-4.47-2.71h-.16c-.7.9-1.11,1.4-2.01,1.93-.29.16-1.89,1.11-3.77,1.11-2.3,0-5.83-1.19-5.83-6.2,0-2.01.74-5.21,4.68-7.02,2.09-.94,4.31-1.39,6.24-1.52,0-2.13,0-2.75-.41-3.32-.37-.53-1.27-.94-2.38-.94-2.5,0-4.06,1.35-5.25,2.38l-2.71-3.36h-.01Zm10.71,8.29c-1.27.25-5.42,1.03-5.42,4.76,0,1.48.9,2.67,2.3,2.67,2.63,0,3.12-2.63,3.12-4.06v-3.36h0Z"/><path class="cls-1" d="m582.85,60.29h5.33v4.02h.12c1.27-2.34,3.36-4.47,6.24-4.47,5.5,0,5.5,4.64,5.5,6.28v15.92h-5.79v-14.2c0-.86.04-2.96-1.89-2.96-1.64,0-2.63,1.07-3.73,2.26v14.89h-5.79v-21.75h0Z"/><path class="cls-1" d="m615.76,66.73c-.08-1.15-.29-2.46-2.34-2.46-2.71,0-2.71,2.58-2.71,3.82v6.36c0,2.71.57,3.69,2.79,3.69,1.93,0,2.42-1.4,2.42-3.12h4.92c-.08,2.22-.21,7.59-7.51,7.59-1.15,0-3.9,0-5.87-1.8-1.93-1.72-2.54-4.35-2.54-6.93v-5.13c0-5.09,2.01-9.03,7.88-9.03,1.35,0,4.31.04,6.2,2.38,1.35,1.64,1.35,3.32,1.4,4.64h-4.64,0Z"/><path class="cls-1" d="m626.18,51.92h5.79v8.82l-.08,2.95h.25c1.64-2.91,3.78-3.94,6.03-3.94,1.72,0,3.28.7,4.23,2.13.99,1.48.99,3.16.99,4.51v15.63h-5.75v-13.99c0-1.31-.04-3.24-1.97-3.24-1.35,0-2.09.7-3.69,2.13v15.1h-5.79v-30.12.02h-.01Z"/><rect class="cls-1" x="339.99" width="7.08" height="93.71"/></g></svg>